<svg width="34.001129" height="42.000000" viewBox="0 0 34.0011 42" fill="none" xmlns="http://www.w3.org/2000/svg" xmlns:xlink="http://www.w3.org/1999/xlink">
	<desc>
			Created with Pixso.
	</desc>
	<defs/>
	<path id="icon" d="M12.1 3C10.8 4.29 10.07 6.03 10.07 7.85L10.07 17C10.07 18.81 10.8 20.56 12.1 21.84C13.4 23.13 15.16 23.85 17 23.85C18.84 23.85 20.6 23.13 21.9 21.84C23.2 20.56 23.93 18.81 23.93 17L23.93 7.85C23.93 6.03 23.2 4.29 21.9 3C20.6 1.72 18.84 1 17 1C15.16 1 13.4 1.72 12.1 3ZM1 19.28C1.56 23.09 3.48 26.56 6.42 29.08C9.36 31.6 13.11 32.98 17 32.98C20.88 32.98 24.64 31.6 27.57 29.08C30.51 26.56 32.44 23.09 33 19.28M17 32.98L17 41" stroke="#455B74" stroke-opacity="1.000000" stroke-width="2.000000" stroke-linejoin="round"/>
</svg>
