<svg width="428" height="150" viewBox="0 0 428 150" fill="none" xmlns="http://www.w3.org/2000/svg">
  <g filter="url(#filter0_dd_2_498)">
    <path d="M-3.05176e-05 150L428 150V22L293 22C284.225 60.6996 252 86 214 86C176 86 144 59 136 22L-3.05176e-05 22V150Z" fill="#ECF0F3" />
    <path d="M-3.05176e-05 150L428 150V22L293 22C284.225 60.6996 252 86 214 86C176 86 144 59 136 22L-3.05176e-05 22V150Z" fill="url(#paint0_linear_2_498)" fill-opacity="0.5" style="mix-blend-mode:soft-light" />
    <path d="M427.5 22.5V149.5L0.499969 149.5V22.5L135.598 22.5C143.786 59.5172 175.889 86.5 214 86.5C252.108 86.5 284.445 61.2056 293.398 22.5L427.5 22.5Z" stroke="white" stroke-opacity="0.4" />
  </g>
  <defs>
    <filter id="filter0_dd_2_498" x="-21.6854" y="0.314666" width="467.947" height="167.947" filterUnits="userSpaceOnUse" color-interpolation-filters="sRGB">
      <feFlood flood-opacity="0" result="BackgroundImageFix" />
      <feColorMatrix in="SourceAlpha" type="matrix" values="0 0 0 0 0 0 0 0 0 0 0 0 0 0 0 0 0 0 127 0" result="hardAlpha" />
      <feOffset dx="6.848" dy="6.848" />
      <feGaussianBlur stdDeviation="5.70667" />
      <feColorMatrix type="matrix" values="0 0 0 0 0.682353 0 0 0 0 0.682353 0 0 0 0 0.752941 0 0 0 0.35 0" />
      <feBlend mode="normal" in2="BackgroundImageFix" result="effect1_dropShadow_2_498" />
      <feColorMatrix in="SourceAlpha" type="matrix" values="0 0 0 0 0 0 0 0 0 0 0 0 0 0 0 0 0 0 127 0" result="hardAlpha" />
      <feOffset dx="-6.848" dy="-6.848" />
      <feGaussianBlur stdDeviation="7.41867" />
      <feColorMatrix type="matrix" values="0 0 0 0 0.950608 0 0 0 0 0.95735 0 0 0 0 0.970833 0 0 0 1 0" />
      <feBlend mode="normal" in2="effect1_dropShadow_2_498" result="effect2_dropShadow_2_498" />
      <feBlend mode="normal" in="SourceGraphic" in2="effect2_dropShadow_2_498" result="shape" />
    </filter>
    <linearGradient id="paint0_linear_2_498" x1="378.484" y1="143.189" x2="328.701" y2="-43.7968" gradientUnits="userSpaceOnUse">
      <stop />
      <stop offset="1" stop-color="white" />
    </linearGradient>
  </defs>
</svg>